<?xml version="1.0" encoding="UTF-8"?><svg id="Layer_1" xmlns="http://www.w3.org/2000/svg" viewBox="0 0 692.31 182.08"><defs><style>.cls-1{fill:#f24139;}</style></defs><g><path class="cls-1" d="M69.14,84.03v56.48c0,22.62-11.36,33.93-34.08,33.93S0,161.43,0,135.4V49.29C0,23.38,11.74,10.42,35.22,10.42c11.25,0,19.72,2.73,25.4,8.18,5.68,5.46,8.52,14.04,8.52,25.75v30.28h-29.38V41.79c0-4.2-1.57-6.31-4.71-6.31s-4.71,2.1-4.71,6.31v101.11c0,4.21,1.62,6.31,4.87,6.31,3.03,0,4.54-2.1,4.54-6.31v-58.87h29.38Z"/><path class="cls-1" d="M116.69,5.24h29.54V166.37h-29.54v-56.4h-9.58v56.4h-29.7V5.24h29.7V83.71h9.58V5.24Z"/><path class="cls-1" d="M155.81,0h29.7V161.13h-29.7V0Z"/><path class="cls-1" d="M266.33,172.91h-30.51l-4.71-58.15h-6.49v58.15h-29.7V12.78h37.98c10.39,0,18.2,2.73,23.45,8.18,5.25,5.46,7.87,13.19,7.87,23.19l.22,25.67c0,8.87-2.22,16.03-6.65,21.48l8.54,81.61Zm-41.71-80.14h2.76c4.44,0,6.65-3.3,6.65-9.89V47.08c0-6.02-2.22-8.04-6.65-8.04h-2.76v53.73Z"/><path class="cls-1" d="M311.29,121.97h-8.76v60.11h-29.7V20.94h38.47c9.84,0,17.5,2.98,22.97,8.95,5.46,5.97,8.2,14.3,8.2,24.98v31.45c0,10.69-2.82,19.3-8.44,25.83-5.63,6.54-13.2,9.8-22.72,9.8Zm-5.68-26.43c4.33,0,6.49-2.9,6.49-8.7v-30.94c0-5.8-2.17-8.7-6.49-8.7h-3.08v48.34h3.08Z"/><path class="cls-1" d="M378.48,153.2h22.24v26.26h-51.94V18.33h29.7V153.2Z"/><path class="cls-1" d="M434.8,146.66h26.13v26.26h-55.83V11.78h55.35v26.26h-25.64v39.73h24.35v24.89h-24.35v43.99Z"/><path class="cls-1" d="M503.61,68.53l1.46-15.48,3.73-41.27h32.62l-24.35,126.89v34.24h-29.7v-34.07l-24.35-127.06h33.27l4.06,41.27,1.46,15.48h1.79Z"/></g><path class="cls-1" d="M621.69,25.75c36.24,0,65.62,29.38,65.62,65.62s-29.38,65.62-65.62,65.62-65.62-29.38-65.62-65.62,29.38-65.62,65.62-65.62m0-5c-38.94,0-70.62,31.68-70.62,70.62s31.68,70.62,70.62,70.62,70.62-31.68,70.62-70.62-31.68-70.62-70.62-70.62h0Z"/><path class="cls-1" d="M599.15,85.76l-36.96-1.44c-.22,2.14-.33,4.32-.33,6.52,0,10.58,2.57,20.54,7.1,29.27l55.15,.11s-9.35,5.24-30.48,5.24c-8.58,0-16.46-.89-22.78-1.94,4.43,7.37,10.32,13.73,17.24,18.63,5.54,1.23,11.92,1.62,18.87,.26,6.33-1.24,13.89-7.18,16.67-13.15,10.56-22.7-4.62-42.28-24.5-43.48Z"/><path class="cls-1" d="M622.34,28.61c-20.98,0-39.47,10.95-50.36,27.59,9.34-6.7,20.84-10.78,32.98-10.78,.49,0,.97,0,1.45,.02,1.14,.03,1.64,1.45,.83,2.27l-.03,.03c-6.28,6.46,1.01,24.41,16.27,40.11,15.26,15.69,32.73,23.18,39.01,16.73,.09-.1,.27,.08,.27,.28,0,17.71-7.81,33.9-19.75,44.79,23.33-8.69,40-31.67,40-58.66,0-34.45-27.16-62.37-60.67-62.37Zm9.36,45.29c0-2.09,1.65-3.79,3.69-3.79s3.69,1.7,3.69,3.79-1.65,3.79-3.69,3.79-3.69-1.7-3.69-3.79Zm43.36,16.48l-13.43,9.72c-.3-3.68-.93-7.25-1.86-10.71-.35,.62-.74,1.16-1.16,1.59-4.01,4.12-13.38,1.36-22.21-6.07,.8,.23,1.64,.37,2.51,.37,5.03,0,9.1-4.19,9.1-9.36s-4.07-9.36-9.1-9.36-9.1,4.19-9.1,9.36c0,1.01,.16,1.98,.45,2.89-8.19-9.52-11.44-20.04-7.2-24.39,4.61-4.74,21.18-5.4,31,4.69,5.77,5.93,7.92,14.25,7.78,21.07l11.96,3.67c1.52,.42,2.64,1.87,2.64,3.59,0,1.19-.54,2.25-1.37,2.93Zm-35.6-14c0-1.07,.84-1.93,1.88-1.93s1.88,.87,1.88,1.93-.84,1.93-1.88,1.93-1.88-.87-1.88-1.93Z"/></svg>