<?xml version="1.0" encoding="utf-8"?>
<!-- Generator: Adobe Illustrator 26.3.1, SVG Export Plug-In . SVG Version: 6.00 Build 0)  -->
<svg version="1.1" xmlns="http://www.w3.org/2000/svg" xmlns:xlink="http://www.w3.org/1999/xlink" x="0px" y="0px"
	 viewBox="0 0 7680 4320" style="enable-background:new 0 0 7680 4320;" xml:space="preserve">
<style type="text/css">
	.st0{display:none;}
	.st1{display:inline;fill:#F24139;}
	.st2{fill:#FFFFFF;}
</style>
<g id="Background" class="st0">
	<rect y="7.38" class="st1" width="7680" height="4305.24"/>
</g>
<g id="Logo">
	<g>
		<path class="st2" d="M2868.55,2079.35c0-5.66-4.59-10.26-10.26-10.26s-10.26,4.59-10.26,10.26s4.59,10.26,10.26,10.26
			S2868.55,2085.02,2868.55,2079.35z"/>
		<path class="st2" d="M2845.95,2066.21c0-11.11-9.01-20.12-20.12-20.12c-11.11,0-20.12,9.01-20.12,20.12s9.01,20.12,20.12,20.12
			C2836.94,2086.33,2845.95,2077.32,2845.95,2066.21z"/>
		<path class="st2" d="M3035.25,2119.05l-65.2-19.49c0.75-36.18-10.99-80.34-42.45-111.8c-53.56-53.56-143.94-50.01-169.07-24.89
			c-23.11,23.11-5.38,78.92,39.29,129.4c-1.57-4.83-2.44-9.98-2.44-15.33c0-27.41,22.22-49.64,49.64-49.64
			c27.41,0,49.64,22.22,49.64,49.64c0,27.41-22.22,49.64-49.64,49.64c-4.75,0-9.32-0.71-13.67-1.95
			c48.18,39.42,99.28,54.05,121.14,32.19c2.29-2.29,4.4-5.14,6.31-8.44c5.06,18.31,8.51,37.29,10.14,56.79l73.26-51.55
			c4.54-3.61,7.46-9.23,7.46-15.53C3049.64,2128.97,3043.54,2121.3,3035.25,2119.05z"/>
		<path class="st2" d="M2756.66,1785.55c-206.54,0-373.98,167.44-373.98,373.98s167.44,373.98,373.98,373.98
			c206.54,0,373.98-167.44,373.98-373.98S2963.2,1785.55,2756.66,1785.55z M2761.78,2359.82c-15.17,31.72-56.4,63.19-90.94,69.78
			c-37.95,7.24-72.75,5.14-102.94-1.36c-37.78-26.04-69.88-59.74-94.04-98.85c34.47,5.58,77.41,10.28,124.23,10.28
			c115.24,0,166.23-27.78,166.23-27.78l-300.82-0.57c-24.71-46.28-38.74-99.12-38.74-155.25c0-11.68,0.62-23.21,1.81-34.58
			l201.6,7.66C2736.6,2135.52,2819.38,2239.4,2761.78,2359.82z M2867.37,2468.04c65.17-57.76,107.74-143.69,107.74-237.61
			c0-1.04-0.96-1.99-1.48-1.48c-34.25,34.25-129.5-5.48-212.75-88.73c-83.25-83.25-122.98-178.51-88.74-212.75
			c0.05-0.05,0.11-0.11,0.16-0.16c4.42-4.36,1.68-11.89-4.53-12.04c-2.63-0.07-5.28-0.1-7.93-0.1c-66.2,0-128.9,21.64-179.87,57.16
			c59.42-88.28,160.27-146.36,274.69-146.36c182.74,0,330.88,148.14,330.88,330.88C3085.55,2300.02,2994.63,2421.95,2867.37,2468.04
			z"/>
	</g>
	<g>
		<path class="st2" d="M3552.43,2138.64v207.19c0,82.98-42.08,124.47-126.23,124.47c-86.56,0-129.84-47.74-129.84-143.23v-315.86
			c0-95.07,43.48-142.61,130.44-142.61c41.67,0,73.04,10.01,94.07,30.02c21.04,20.01,31.56,51.5,31.56,94.44v107.42h-108.8v-116.8
			c0-15.42-5.81-23.14-17.43-23.14c-11.63,0-17.43,7.72-17.43,23.14v370.9c0,15.43,6.01,23.14,18.03,23.14
			c11.21,0,16.83-7.71,16.83-23.14v-215.94H3552.43z"/>
		<path class="st2" d="M3728.56,1849.6h109.4v591.06h-109.4v-254.56h-35.47v254.56h-110V1849.6h110v240.18h35.47V1849.6z"/>
		<path class="st2" d="M3873.41,1830.39h110v591.06h-110V1830.39z"/>
		<path class="st2" d="M4282.77,2464.66h-113.01l-17.43-206.4h-24.04v206.4h-110V1873.6h140.66c38.47,0,67.42,10.01,86.86,30.02
			c19.43,20.01,29.15,48.38,29.15,85.06v138.85c0,32.52-8.22,58.79-24.65,78.81L4282.77,2464.66z M4128.28,2170.7h10.22
			c16.43,0,24.65-12.09,24.65-36.28v-131.35c0-22.1-8.22-33.15-24.65-33.15h-10.22V2170.7z"/>
		<path class="st2" d="M4449.27,2277.78h-32.46v220.49h-110v-591.06h142.46c36.46,0,64.82,10.95,85.06,32.84
			c20.23,21.89,30.36,52.44,30.36,91.63v115.38c0,39.2-10.43,70.78-31.26,94.76C4512.59,2265.8,4484.53,2277.78,4449.27,2277.78z
			 M4428.23,2180.84c16.02,0,24.05-10.63,24.05-31.9v-113.51c0-21.26-8.02-31.9-24.05-31.9h-11.42v177.3H4428.23z"/>
		<path class="st2" d="M4698.13,2392.35h82.35v96.32h-192.36v-591.06h110V2392.35z"/>
		<path class="st2" d="M4906.7,2368.34h96.78v96.32H4796.7V1873.6h204.98v96.32h-94.98v145.73h90.17v91.32h-90.17V2368.34z"/>
		<path class="st2" d="M5161.57,2081.77l5.41-56.8l13.83-151.37h120.82l-90.17,447.2v143.86h-110v-143.23l-90.17-447.83h123.22
			l15.03,151.37l5.41,56.8H5161.57z"/>
	</g>
</g>
</svg>
