<?xml version="1.0" encoding="utf-8"?>
<!-- Generator: Adobe Illustrator 26.3.1, SVG Export Plug-In . SVG Version: 6.00 Build 0)  -->
<svg version="1.1" id="Layer_1" xmlns="http://www.w3.org/2000/svg" xmlns:xlink="http://www.w3.org/1999/xlink" x="0px" y="0px"
	 viewBox="0 0 841.89 595.28" style="enable-background:new 0 0 841.89 595.28;" xml:space="preserve">
<style type="text/css">
	.st0{fill:#FFFFFF;}
</style>
<g>
	<path class="st0" d="M144.14,296.24v56.48c0,22.62-11.36,33.93-34.08,33.93c-23.37,0-35.06-13.01-35.06-39.05V261.5
		c0-25.92,11.74-38.88,35.22-38.88c11.25,0,19.72,2.73,25.4,8.18c5.68,5.46,8.52,14.04,8.52,25.75v30.28h-29.38V254
		c0-4.2-1.57-6.31-4.71-6.31c-3.14,0-4.71,2.1-4.71,6.31v101.11c0,4.21,1.62,6.31,4.87,6.31c3.03,0,4.54-2.1,4.54-6.31v-58.87
		H144.14z"/>
	<path class="st0" d="M191.7,217.44h29.54v161.13H191.7v-56.4h-9.58v56.4h-29.7V217.44h29.7v78.48h9.58V217.44z"/>
	<path class="st0" d="M230.81,212.21h29.7v161.13h-29.7V212.21z"/>
	<path class="st0" d="M341.34,385.12h-30.51l-4.71-58.15h-6.49v58.15h-29.7V224.99h37.98c10.39,0,18.2,2.73,23.45,8.18
		c5.25,5.46,7.87,13.19,7.87,23.19l0.22,25.67c0,8.87-2.22,16.03-6.65,21.48L341.34,385.12z M299.63,304.98h2.76
		c4.44,0,6.65-3.3,6.65-9.89v-35.81c0-6.02-2.22-8.04-6.65-8.04h-2.76V304.98z"/>
	<path class="st0" d="M386.29,334.17h-8.76v60.11h-29.7V233.15h38.47c9.84,0,17.5,2.98,22.97,8.95c5.46,5.97,8.2,14.3,8.2,24.98
		v31.45c0,10.69-2.82,19.3-8.44,25.83C403.39,330.91,395.81,334.17,386.29,334.17z M380.61,307.75c4.33,0,6.49-2.9,6.49-8.7v-30.94
		c0-5.8-2.17-8.7-6.49-8.7h-3.08v48.34H380.61z"/>
	<path class="st0" d="M453.48,365.41h22.24v26.26h-51.94V230.53h29.7V365.41z"/>
	<path class="st0" d="M509.8,358.86h26.13v26.26H480.1V223.99h55.35v26.26H509.8v39.73h24.35v24.89H509.8V358.86z"/>
	<path class="st0" d="M578.61,280.74l1.46-15.48l3.73-41.27h32.62l-24.35,126.89v34.24h-29.7v-34.07l-24.35-127.06h33.27l4.06,41.27
		l1.46,15.48H578.61z"/>
</g>
<path class="st0" d="M696.7,237.96c36.24,0,65.62,29.38,65.62,65.62s-29.38,65.62-65.62,65.62c-36.24,0-65.62-29.38-65.62-65.62
	S660.46,237.96,696.7,237.96 M696.7,232.96c-38.94,0-70.62,31.68-70.62,70.62s31.68,70.62,70.62,70.62s70.62-31.68,70.62-70.62
	S735.63,232.96,696.7,232.96L696.7,232.96z"/>
<path class="st0" d="M674.15,297.97l-36.96-1.44c-0.22,2.14-0.33,4.32-0.33,6.52c0,10.58,2.57,20.54,7.1,29.27l55.15,0.11
	c0,0-9.35,5.24-30.48,5.24c-8.58,0-16.46-0.89-22.78-1.94c4.43,7.37,10.32,13.73,17.24,18.63c5.54,1.23,11.92,1.62,18.87,0.26
	c6.33-1.24,13.89-7.18,16.67-13.15C709.21,318.75,694.03,299.17,674.15,297.97z"/>
<path class="st0" d="M697.35,240.82c-20.98,0-39.47,10.95-50.36,27.59c9.34-6.7,20.84-10.78,32.98-10.78c0.49,0,0.97,0.01,1.45,0.02
	c1.14,0.03,1.64,1.45,0.83,2.27c-0.01,0.01-0.02,0.02-0.03,0.03c-6.28,6.46,1.01,24.41,16.27,40.11
	c15.26,15.69,32.73,23.18,39.01,16.73c0.09-0.1,0.27,0.08,0.27,0.28c0,17.71-7.81,33.9-19.75,44.79c23.33-8.69,40-31.67,40-58.66
	C758.01,268.74,730.85,240.82,697.35,240.82z M706.7,286.1c0-2.09,1.65-3.79,3.69-3.79s3.69,1.7,3.69,3.79
	c0,2.1-1.65,3.79-3.69,3.79S706.7,288.2,706.7,286.1z M750.06,302.58l-13.43,9.72c-0.3-3.68-0.93-7.25-1.86-10.71
	c-0.35,0.62-0.74,1.16-1.16,1.59c-4.01,4.12-13.38,1.36-22.21-6.07c0.8,0.23,1.64,0.37,2.51,0.37c5.03,0,9.1-4.19,9.1-9.36
	c0-5.17-4.07-9.36-9.1-9.36c-5.03,0-9.1,4.19-9.1,9.36c0,1.01,0.16,1.98,0.45,2.89c-8.19-9.52-11.44-20.04-7.2-24.39
	c4.61-4.74,21.18-5.4,31,4.69c5.77,5.93,7.92,14.25,7.78,21.07l11.96,3.67c1.52,0.42,2.64,1.87,2.64,3.59
	C751.43,300.85,750.89,301.9,750.06,302.58z M714.46,288.58c0-1.07,0.84-1.93,1.88-1.93s1.88,0.87,1.88,1.93s-0.84,1.93-1.88,1.93
	S714.46,289.65,714.46,288.58z"/>
</svg>
