<svg width="927" height="307" viewBox="0 0 927 307" fill="none" xmlns="http://www.w3.org/2000/svg">
<path d="M67.9283 141.729V244.618C67.9283 251.217 65.5406 254.456 60.646 254.456C55.5126 254.456 52.8862 251.217 52.8862 244.618V69.5104C52.8862 62.9123 55.3932 59.6733 60.4072 59.6733C65.4212 59.6733 67.9283 62.9123 67.9283 69.5104V126.014H118.785V74.189C118.785 35.2006 99.2063 18.4055 60.4072 18.4055C20.1755 18.4055 0 39.8792 0 82.8264V231.422C0 274.49 20.1755 295.963 60.4072 295.963C99.3257 296.083 118.785 277.609 118.785 240.54V141.729H67.9283Z" fill="#F24139"/>
<path d="M199.129 142.047H183.729V9.09627H132.394V281.975H183.729V185.474H199.129V281.975H250.463V9.09627H199.129V142.047Z" fill="#F24139"/>
<path d="M266.102 272.879H317.436V0H266.102V272.879Z" fill="#F24139"/>
<path d="M440.997 152.046C448.518 143.168 452.218 131.412 452.218 116.896V71.7897C452.218 39.0394 434.311 20.6848 398.855 20.6848H333.195V293.564H384.529V193.416H395.273L402.556 293.564H455.68L440.997 152.046ZM384.529 64.112H388.827C396.109 64.112 399.69 68.7906 399.69 78.1478V138.112C399.571 148.909 395.99 154.308 388.827 154.308H384.529V64.112Z" fill="#F24139"/>
<path d="M532.921 202.671C549.037 202.671 561.93 197.272 571.481 186.356C580.912 175.559 585.687 161.523 585.687 144.128V89.9044C585.687 72.2696 581.151 58.5936 571.958 48.7566C562.766 39.0394 549.753 34.1209 532.921 34.1209H466.186V307H517.52V202.671H532.921ZM517.52 159.364V77.5481H522.415C529.458 77.5481 532.921 82.1067 532.921 91.104V145.568C532.921 154.805 529.458 159.364 522.415 159.364H517.52Z" fill="#F24139"/>
<path d="M647.169 30.9834H595.835V303.863H685.013V260.435H647.169V30.9834Z" fill="#F24139"/>
<path d="M744.107 174.34H786.129V133.312H744.107V64.112H788.517V20.6848H692.773V293.564H789.233V250.137H744.107V174.34Z" fill="#F24139"/>
<path d="M859.072 115.457L857.042 88.9446L848.805 20.6848H792.815L834.36 236.581V293.564H885.694V236.341L927 20.6848H872.204L864.444 88.9446L862.176 115.457H859.072Z" fill="#F24139"/>
</svg>
